CASH 2010 DVDrip

Format                           : AVI
Format/Info                      : Audio Video Interleave
File size                        : 701 MiB
Duration                         : 1h 48mn
Overall bit rate                 : 455 Kbps
Writing application              : MEncoder SVN-r29352(20090610-gcc4.3.3)
Writing library                  : MPlayer

Video
ID                               : 0
Format                           : MPEG-4 Visual
Format profile                   : AdvancedSimple@L5
Format settings, BVOP            : Yes
Format settings, QPel            : No
Format settings, GMC             : No warppoints
Format settings, Matrix          : Default (H.263)
Codec ID                         : XVID
Codec ID/Hint                    : XviD
Duration                         : 1h 48mn
Bit rate                         : 766 Kbps
Width                            : 640 pixels
Height                           : 360 pixels
Display aspect ratio             : 4:3
Frame rate                       : 24.000 fps
Resolution                       : 24 bits
Colorimetry                      : 4:2:0
Scan type                        : Progressive
Bits/(Pixel*Frame)               : 0.139
Stream size                      : 593 MiB (85%)
Writing library                  : XviD 1.2.1 (UTC 2008-12-04)

Audio
ID                               : 1
Format                           : MPEG Audio
Format version                   : Version 2
Format profile                   : Layer 3
Codec ID                         : 55
Codec ID/Hint                    : MP3
Duration                         : 1h 48mn
Bit rate mode                    : Constant
Bit rate                         : 128 Kbps
Channel(s)                       : 2 channels
Sampling rate                    : 24.0 KHz
Resolution                       : 16 bits
Video delay                      : 42ms
Stream size                      : 98.7 MiB (14%)
Alignment                        : Aligned on interleaves
Interleave, duration             : 24 ms (0.58 video frame)
Interleave, preload duration     : 504 ms
Writing library                  : LAME3.98

PLOT

A stroke of good luck turns lethal for Sam Phelan (Chris Hemsworth) and his wife Leslie (Victoria Profeta) when they are faced with a life-changing decision which brings strange and sinister Pyke Kubic (Sean Bean) to their doorstep. As Pyke leads Sam and Leslie on a tumultuous adventure through the streets of Chicago, each are pulled deeper and deeper into a desperate spiral of deception and violence… All in the name of cash.

CASH is a quirky psychological thriller that explores the mysterious power which money wields over humans, triggering despicable acts to possess it. At a time when foreclosures, debt and unemployment are so common, CASH takes a bold look at our human foibles of greed, materialism, cowardice and immorality amidst a backdrop ripe with satire, stereotypes, mind games and consequences.
 
http://www.imdb.com/title/tt1106860/ 

PLEASE SEED AND ENJOY THANKS

screens
 
http://img704.imageshack.us/img704/7320/vlcsnap2010012702h42m02.png 
http://img14.imageshack.us/img14/5079/vlcsnap2010012716h14m01.png 
http://img704.imageshack.us/img704/9522/vlcsnap2010012716h14m09.png 
http://img691.imageshack.us/img691/8539/vlcsnap2010012716h14m19.png